<?xml version="1.0" encoding="utf-8"?>
<svg id="master-artboard" viewBox="0 0 1400 980" version="1.1" xmlns="http://www.w3.org/2000/svg" x="0px" y="0px" style="enable-background:new 0 0 1400 980;" width="1400px" height="980px"><rect id="ee-background" x="0" y="0" width="1400" height="980" style="fill: white; fill-opacity: 0; pointer-events: none;"/><defs><radialGradient id="gradient-0" gradientUnits="objectBoundingBox" cx="0.5" cy="0.5" r="0.5">
                <stop offset="0" style="stop-color: #333333"/>
                <stop offset="1" style="stop-color: #000000"/>
              </radialGradient><linearGradient id="gradient-1" gradientUnits="userSpaceOnUse" x1="652" y1="46" x2="652" y2="146">
                <stop offset="0" style="stop-color: #333333"/>
                <stop offset="1" style="stop-color: #000000"/>
              </linearGradient><linearGradient id="gradient-2" gradientUnits="userSpaceOnUse" x1="292.9259033203125" y1="668" x2="292.9259033203125" y2="700.7164192199707" gradientTransform="matrix(0.9999953461627505, 0.0021810609022877014, -0.002154753313268587, 0.9892224699101682, 1.5113218818859195, 6.913054931569604)">
                <stop offset="0" style="stop-color: #ffffff"/>
                <stop offset="1" style="stop-color: #cccccc"/>
              </linearGradient></defs><g transform="matrix(-0.002757482929155231, -14.006158828735352, 14.006158828735352, -0.002757482929155231, -2349.117113691502, 4594.423685897361)"><g id="g-3" transform="matrix(1, 0, 0, 1, 0, 0)">
	<path class="st15" d="M326.6,214.6l-20.5-16.5c-1.5-1.2-2.8-0.6-2.8,1.3v7.6h-27c-2,0-3.6,1.3-3.6,2.9v13.8c0,1.6,1.6,2.9,3.6,2.9&#10;&#9;&#9;h27v7.5c0,2,1.3,2.6,2.8,1.3l20.5-16.5C328.1,217.8,328.1,215.8,326.6,214.6z" style="fill: rgb(51, 51, 51); opacity: 1; stroke: rgb(0, 0, 0); stroke-width: 0;"/>
</g></g><path d="M 591.1126708984375 606.9568481445312 L 784.1326904296875 606.9568481445312 L 785.7684936523438 799.9769287109375 L 587.8411254882812 799.9769287109375" style="fill: rgb(51, 51, 51); fill-opacity: 1; stroke: rgb(0, 0, 0); stroke-opacity: 1; stroke-width: 0; paint-order: stroke;" transform="matrix(1.3659679889678955, 0, 0, 1.3659679889678955, -251.82189700097183, 7.202689662033265)"/><path d="M 648.3643798828125 278.1684875488281" style="fill: rgb(51, 51, 51); fill-opacity: 1; stroke: rgb(0, 0, 0); stroke-opacity: 1; stroke-width: 0; paint-order: fill;"/></svg>