<?xml version="1.0" encoding="utf-8"?>
<svg id="master-artboard" viewBox="0 0 1400 980" version="1.1" xmlns="http://www.w3.org/2000/svg" x="0px" y="0px" style="enable-background:new 0 0 1400 980;" width="1400px" height="980px"><rect id="ee-background" x="0" y="0" width="1400" height="980" style="fill: white; fill-opacity: 0; pointer-events: none;"/><path d="M 271.9950256347656 668 L 262.44500732421875 668 L 262.44500732421875 650.8699951171875 L 271.9950256347656 650.8699951171875 L 271.9950256347656 652.6400146484375 L 264.4350280761719 652.6400146484375 L 264.4350280761719 658.1599731445312 L 271.5350341796875 658.1599731445312 L 271.5350341796875 659.9099731445312 L 264.4350280761719 659.9099731445312 L 264.4350280761719 666.219970703125 L 271.9950256347656 666.219970703125 L 271.9950256347656 668 ZM 289.4622802734375 659.27001953125 C 289.4622802734375 662.0966796875 288.69561767578125 664.260009765625 287.16229248046875 665.760009765625 C 285.6289367675781 667.2533569335938 283.4189453125 668 280.53228759765625 668 L 275.7922668457031 668 L 275.7922668457031 650.8699951171875 L 281.0422668457031 650.8699951171875 C 283.7022705078125 650.8699951171875 285.77227783203125 651.606689453125 287.2522888183594 653.0800170898438 C 288.7256164550781 654.5599975585938 289.4622802734375 656.6233520507812 289.4622802734375 659.27001953125 M 287.352294921875 659.3400268554688 C 287.352294921875 657.106689453125 286.7922668457031 655.42333984375 285.6722717285156 654.2899780273438 C 284.5522766113281 653.1566772460938 282.8856201171875 652.5900268554688 280.6722717285156 652.5900268554688 L 277.78228759765625 652.5900268554688 L 277.78228759765625 666.280029296875 L 280.2022705078125 666.280029296875 C 282.582275390625 666.280029296875 284.36895751953125 665.6966552734375 285.5622863769531 664.530029296875 C 286.755615234375 663.356689453125 287.352294921875 661.6266479492188 287.352294921875 659.3400268554688 ZM 300.8676452636719 668 L 295.0576477050781 652.8099975585938 L 294.9576416015625 652.8099975585938 C 295.07098388671875 654.0166625976562 295.1276550292969 655.4466552734375 295.1276550292969 657.0999755859375 L 295.1276550292969 668 L 293.2876281738281 668 L 293.2876281738281 650.8699951171875 L 296.2876281738281 650.8699951171875 L 301.7076416015625 665 L 301.8076477050781 665 L 307.27764892578125 650.8699951171875 L 310.2476501464844 650.8699951171875 L 310.2476501464844 668 L 308.25762939453125 668 L 308.25762939453125 656.9600219726562 C 308.25762939453125 655.693359375 308.3143005371094 654.3200073242188 308.4276428222656 652.8400268554688 L 308.32763671875 652.8400268554688 L 302.4676513671875 668 L 300.8676452636719 668 ZM 324.6156005859375 663.4400024414062 C 324.6156005859375 664.9466552734375 324.0689392089844 666.1233520507812 322.9756164550781 666.969970703125 C 321.88226318359375 667.8099975585938 320.3989562988281 668.22998046875 318.5256042480469 668.22998046875 C 316.4922790527344 668.22998046875 314.928955078125 667.969970703125 313.8356018066406 667.4500122070312 L 313.8356018066406 665.530029296875 C 314.5422668457031 665.8233032226562 315.3089599609375 666.056640625 316.1356201171875 666.22998046875 C 316.9622802734375 666.4033203125 317.78228759765625 666.489990234375 318.5956115722656 666.489990234375 C 319.9222717285156 666.489990234375 320.9222717285156 666.2366943359375 321.5956115722656 665.72998046875 C 322.2689514160156 665.22998046875 322.6056213378906 664.530029296875 322.6056213378906 663.6300048828125 C 322.6056213378906 663.0366821289062 322.4856262207031 662.5499877929688 322.24560546875 662.1699829101562 C 322.005615234375 661.7899780273438 321.60894775390625 661.4400024414062 321.05560302734375 661.1199951171875 C 320.49560546875 660.7999877929688 319.6455993652344 660.4366455078125 318.505615234375 660.030029296875 C 316.91229248046875 659.4633178710938 315.77227783203125 658.7866821289062 315.0856018066406 658 C 314.3989562988281 657.219970703125 314.05560302734375 656.2033081054688 314.05560302734375 654.9500122070312 C 314.05560302734375 653.6233520507812 314.5522766113281 652.5700073242188 315.5456237792969 651.7899780273438 C 316.5389404296875 651.010009765625 317.8522644042969 650.6199951171875 319.4856262207031 650.6199951171875 C 321.1922912597656 650.6199951171875 322.7589416503906 650.933349609375 324.18560791015625 651.5599975585938 L 323.56561279296875 653.2899780273438 C 322.15228271484375 652.6966552734375 320.7756042480469 652.4000244140625 319.43560791015625 652.4000244140625 C 318.38226318359375 652.4000244140625 317.5589599609375 652.6266479492188 316.9656066894531 653.0800170898438 C 316.3722839355469 653.5333251953125 316.07562255859375 654.163330078125 316.07562255859375 654.969970703125 C 316.07562255859375 655.5633544921875 316.18560791015625 656.0499877929688 316.4056091308594 656.4299926757812 C 316.6256103515625 656.8099975585938 316.99560546875 657.1566772460938 317.515625 657.469970703125 C 318.0356140136719 657.7899780273438 318.8289489746094 658.1400146484375 319.8955993652344 658.52001953125 C 321.69561767578125 659.1599731445312 322.9322814941406 659.8466796875 323.6056213378906 660.5800170898438 C 324.2789306640625 661.3133544921875 324.6156005859375 662.2666625976562 324.6156005859375 663.4400024414062 Z" transform="matrix(15.336627960205078, 0, 0, 15.336627960205078, -3791.09765625, -10015.3720703125)" style="fill: rgb(51, 51, 51); white-space: pre; color: rgb(51, 51, 51); stroke: rgb(0, 0, 0); stroke-width: 3;"/></svg>