<?xml version="1.0" encoding="utf-8"?>
<svg id="master-artboard" viewBox="0 0 1400 980" version="1.1" xmlns="http://www.w3.org/2000/svg" x="0px" y="0px" style="enable-background:new 0 0 1400 980;" width="1400px" height="980px"><rect id="ee-background" x="0" y="0" width="1400" height="980" style="fill: white; fill-opacity: 0; pointer-events: none;"/><path d="M 271.9949951171875 668 L 262.4449768066406 668 L 262.4449768066406 650.8699951171875 L 271.9949951171875 650.8699951171875 L 271.9949951171875 652.6400146484375 L 264.43499755859375 652.6400146484375 L 264.43499755859375 658.1599731445312 L 271.5350036621094 658.1599731445312 L 271.5350036621094 659.9099731445312 L 264.43499755859375 659.9099731445312 L 264.43499755859375 666.219970703125 L 271.9949951171875 666.219970703125 L 271.9949951171875 668 ZM 289.46221923828125 659.27001953125 C 289.46221923828125 662.0966796875 288.695556640625 664.260009765625 287.1622314453125 665.760009765625 C 285.6288757324219 667.2533569335938 283.41888427734375 668 280.5322265625 668 L 275.7922058105469 668 L 275.7922058105469 650.8699951171875 L 281.0422058105469 650.8699951171875 C 283.70220947265625 650.8699951171875 285.772216796875 651.606689453125 287.2522277832031 653.0800170898438 C 288.7255554199219 654.5599975585938 289.46221923828125 656.6233520507812 289.46221923828125 659.27001953125 M 287.35223388671875 659.3400268554688 C 287.35223388671875 657.106689453125 286.7922058105469 655.42333984375 285.6722106933594 654.2899780273438 C 284.5522155761719 653.1566772460938 282.88555908203125 652.5900268554688 280.6722106933594 652.5900268554688 L 277.7822265625 652.5900268554688 L 277.7822265625 666.280029296875 L 280.20220947265625 666.280029296875 C 282.58221435546875 666.280029296875 284.368896484375 665.6966552734375 285.5622253417969 664.530029296875 C 286.75555419921875 663.356689453125 287.35223388671875 661.6266479492188 287.35223388671875 659.3400268554688 ZM 300.8674011230469 668 L 295.0574035644531 652.8099975585938 L 294.9573974609375 652.8099975585938 C 295.07073974609375 654.0166625976562 295.1274108886719 655.4466552734375 295.1274108886719 657.0999755859375 L 295.1274108886719 668 L 293.2873840332031 668 L 293.2873840332031 650.8699951171875 L 296.2873840332031 650.8699951171875 L 301.7073974609375 665 L 301.8074035644531 665 L 307.27740478515625 650.8699951171875 L 310.2474060058594 650.8699951171875 L 310.2474060058594 668 L 308.25738525390625 668 L 308.25738525390625 656.9600219726562 C 308.25738525390625 655.693359375 308.3140563964844 654.3200073242188 308.4273986816406 652.8400268554688 L 308.327392578125 652.8400268554688 L 302.4674072265625 668 L 300.8674011230469 668 ZM 324.61474609375 663.4400024414062 C 324.61474609375 664.9466552734375 324.0680847167969 666.1233520507812 322.9747619628906 666.969970703125 C 321.88140869140625 667.8099975585938 320.3981018066406 668.22998046875 318.5247497558594 668.22998046875 C 316.4914245605469 668.22998046875 314.9281005859375 667.969970703125 313.8347473144531 667.4500122070312 L 313.8347473144531 665.530029296875 C 314.5414123535156 665.8233032226562 315.30810546875 666.056640625 316.134765625 666.22998046875 C 316.96142578125 666.4033203125 317.78143310546875 666.489990234375 318.5947570800781 666.489990234375 C 319.9214172363281 666.489990234375 320.9214172363281 666.2366943359375 321.5947570800781 665.72998046875 C 322.2680969238281 665.22998046875 322.6047668457031 664.530029296875 322.6047668457031 663.6300048828125 C 322.6047668457031 663.0366821289062 322.4847717285156 662.5499877929688 322.2447509765625 662.1699829101562 C 322.0047607421875 661.7899780273438 321.60809326171875 661.4400024414062 321.05474853515625 661.1199951171875 C 320.4947509765625 660.7999877929688 319.6447448730469 660.4366455078125 318.5047607421875 660.030029296875 C 316.91143798828125 659.4633178710938 315.77142333984375 658.7866821289062 315.0847473144531 658 C 314.3981018066406 657.219970703125 314.05474853515625 656.2033081054688 314.05474853515625 654.9500122070312 C 314.05474853515625 653.6233520507812 314.5514221191406 652.5700073242188 315.5447692871094 651.7899780273438 C 316.5380859375 651.010009765625 317.8514099121094 650.6199951171875 319.4847717285156 650.6199951171875 C 321.1914367675781 650.6199951171875 322.7580871582031 650.933349609375 324.18475341796875 651.5599975585938 L 323.56475830078125 653.2899780273438 C 322.15142822265625 652.6966552734375 320.7747497558594 652.4000244140625 319.43475341796875 652.4000244140625 C 318.38140869140625 652.4000244140625 317.55810546875 652.6266479492188 316.9647521972656 653.0800170898438 C 316.3714294433594 653.5333251953125 316.07476806640625 654.163330078125 316.07476806640625 654.969970703125 C 316.07476806640625 655.5633544921875 316.18475341796875 656.0499877929688 316.4047546386719 656.4299926757812 C 316.624755859375 656.8099975585938 316.9947509765625 657.1566772460938 317.5147705078125 657.469970703125 C 318.0347595214844 657.7899780273438 318.8280944824219 658.1400146484375 319.8947448730469 658.52001953125 C 321.69476318359375 659.1599731445312 322.9314270019531 659.8466796875 323.6047668457031 660.5800170898438 C 324.278076171875 661.3133544921875 324.61474609375 662.2666625976562 324.61474609375 663.4400024414062 Z" transform="matrix(17.104290008544922, 0, 0, 17.104290008544922, -4328.18701171875, -11197.9814453125)" style="fill: rgb(51, 51, 51); white-space: pre; color: rgb(51, 51, 51); stroke: rgb(0, 0, 0); stroke-width: 3;"/></svg>