<?xml version="1.0" encoding="utf-8"?>
<!-- Svg Vector Icons : http://www.onlinewebfonts.com/icon -->
<!DOCTYPE svg PUBLIC "-//W3C//DTD SVG 1.1//EN" "http://www.w3.org/Graphics/SVG/1.1/DTD/svg11.dtd">
<svg version="1.1" xmlns="http://www.w3.org/2000/svg" xmlns:xlink="http://www.w3.org/1999/xlink" x="0px" y="0px" viewBox="0 0 1000 1000" enable-background="new 0 0 1000 1000" xml:space="preserve">
<metadata> Svg Vector Icons : http://www.onlinewebfonts.com/icon </metadata>
<g><g transform="matrix(1 0 0 -1 0 1920)"><path d="M500,930c-29.6,0-58.9,2.6-87.8,7.8c-28.9,5.2-56.6,12.8-83,22.8c-26.4,10-51.9,22.1-76.4,36.2c-24.5,14.1-47.3,30.3-68.4,48.6c-21.1,18.3-40.7,37.9-59,59c-18.3,21.1-34.5,43.9-48.6,68.4c-14.1,24.5-26.2,50-36.2,76.4c-10,26.4-17.6,54.1-22.8,83c-5.2,28.9-7.8,58.2-7.8,87.8c0,29.6,2.6,58.9,7.8,87.8c5.2,28.9,12.8,56.6,22.8,83c10,26.4,22.1,51.8,36.2,76.2c14.1,24.4,30.3,47.2,48.6,68.4s37.9,40.9,59,59.2c21.1,18.3,43.9,34.5,68.4,48.6c24.5,14.1,50,26.2,76.4,36.2c26.4,10,54.1,17.6,83,22.8c28.9,5.2,58.2,7.8,87.8,7.8s58.9-2.6,87.8-7.8c28.9-5.2,56.6-12.8,83-22.8c26.4-10,51.9-22.1,76.4-36.2c24.5-14.1,47.3-30.3,68.4-48.6s40.7-38,59-59.2c18.3-21.2,34.5-44,48.6-68.4c14.1-24.4,26.2-49.8,36.2-76.2c10-26.4,17.6-54.1,22.8-83c5.2-28.9,7.8-58.2,7.8-87.8c0-44.3-5.9-87.6-17.6-130c-11.7-42.4-28.1-81.5-49.2-117.2c-21.1-35.7-46.7-68.7-77-99c-30.3-30.3-63.3-55.9-99-77c-35.7-21.1-74.8-37.5-117.2-49.2C587.6,935.9,544.3,930,500,930z M500,1060c28,0,55.5,3.1,82.4,9.4c26.9,6.3,52.2,15.3,75.8,27.2s45.9,26,66.8,42.4s39.6,35.1,56,56s30.5,43.2,42.4,66.8c11.9,23.6,20.9,48.9,27.2,75.8c6.3,26.9,9.4,54.4,9.4,82.4c0,32.5-4.3,64.3-13,95.4c-8.7,31.1-20.7,59.8-36.2,86.2c-15.5,26.4-34.3,50.7-56.4,72.8c-22.1,22.1-46.4,40.9-72.8,56.4c-26.4,15.5-55.1,27.5-86.2,36.2s-62.9,13-95.4,13c-32.5,0-64.3-4.3-95.4-13c-31.1-8.7-59.8-20.7-86.2-36.2c-26.4-15.5-50.7-34.3-72.8-56.4s-40.9-46.4-56.4-72.8c-15.5-26.4-27.5-55.1-36.2-86.2c-8.7-31.1-13-62.9-13-95.4c0-32.5,4.3-64.3,13-95.4c8.7-31.1,20.7-59.8,36.2-86.2c15.5-26.4,34.3-50.7,56.4-72.8s46.4-40.9,72.8-56.4c26.4-15.5,55.1-27.5,86.2-36.2C435.7,1064.3,467.5,1060,500,1060z M507.2,1146.4c-2.1-2.7-4.7-4-7.6-4c-3.7,0-6.9,1.7-9.6,5.2l-226,295.2c-1.6,1.9-2.4,4.3-2.4,7.2c0,2.7,0.7,5,2.2,7c1.5,2,3.4,3,5.8,3H380v178.8c0,2.7,0.5,5.2,1.6,7.6c1.1,2.4,2.5,4.5,4.2,6.4c1.7,1.9,3.9,3.3,6.4,4.4c2.5,1.1,5.1,1.6,7.8,1.6h200c5.6,0,10.3-2,14.2-6c3.9-4,5.8-8.7,5.8-14V1460h107.6c2.4,0,4.3-0.9,5.6-2.8c1.3-1.9,2-4,2-6.4c0-2.9-0.8-5.3-2.4-7.2L507.2,1146.4z"/></g></g>
</svg>