<?xml version="1.0" encoding="utf-8"?>
<svg id="master-artboard" viewBox="0 0 1400 980" version="1.1" xmlns="http://www.w3.org/2000/svg" x="0px" y="0px" style="enable-background:new 0 0 1400 980;" width="1400px" height="980px"><rect id="ee-background" x="0" y="0" width="1400" height="980" style="fill: white; fill-opacity: 0; pointer-events: none;"/><path d="M 697.8685913085938 157.7425537109375 L 1158.56640625 637.7366333007812 L 255.2609405517578 641.354736328125" style="fill: rgb(51, 51, 51); fill-opacity: 1; stroke: rgb(0, 0, 0); stroke-opacity: 1; stroke-width: 0; paint-order: fill;" transform="matrix(1.013351082801819, 0, 0, 1.013351082801819, -13.056140189949645, -53.964695938801825)"/><path d="M 271.9949951171875 668 L 262.4449768066406 668 L 262.4449768066406 650.8699951171875 L 271.9949951171875 650.8699951171875 L 271.9949951171875 652.6400146484375 L 264.43499755859375 652.6400146484375 L 264.43499755859375 658.1599731445312 L 271.5350036621094 658.1599731445312 L 271.5350036621094 659.9099731445312 L 264.43499755859375 659.9099731445312 L 264.43499755859375 666.219970703125 L 271.9949951171875 666.219970703125 L 271.9949951171875 668 ZM 289.4608459472656 659.27001953125 C 289.4608459472656 662.0966796875 288.6941833496094 664.260009765625 287.1608581542969 665.760009765625 C 285.62750244140625 667.2533569335938 283.4175109863281 668 280.5308532714844 668 L 275.79083251953125 668 L 275.79083251953125 650.8699951171875 L 281.04083251953125 650.8699951171875 C 283.7008361816406 650.8699951171875 285.7708435058594 651.606689453125 287.2508544921875 653.0800170898438 C 288.72418212890625 654.5599975585938 289.4608459472656 656.6233520507812 289.4608459472656 659.27001953125 M 287.3508605957031 659.3400268554688 C 287.3508605957031 657.106689453125 286.79083251953125 655.42333984375 285.67083740234375 654.2899780273438 C 284.55084228515625 653.1566772460938 282.8841857910156 652.5900268554688 280.67083740234375 652.5900268554688 L 277.7808532714844 652.5900268554688 L 277.7808532714844 666.280029296875 L 280.2008361816406 666.280029296875 C 282.5808410644531 666.280029296875 284.3675231933594 665.6966552734375 285.56085205078125 664.530029296875 C 286.7541809082031 663.356689453125 287.3508605957031 661.6266479492188 287.3508605957031 659.3400268554688 ZM 300.8669738769531 668 L 295.0569763183594 652.8099975585938 L 294.95697021484375 652.8099975585938 C 295.0703125 654.0166625976562 295.1269836425781 655.4466552734375 295.1269836425781 657.0999755859375 L 295.1269836425781 668 L 293.2869567871094 668 L 293.2869567871094 650.8699951171875 L 296.2869567871094 650.8699951171875 L 301.70697021484375 665 L 301.8069763183594 665 L 307.2769775390625 650.8699951171875 L 310.2469787597656 650.8699951171875 L 310.2469787597656 668 L 308.2569580078125 668 L 308.2569580078125 656.9600219726562 C 308.2569580078125 655.693359375 308.3136291503906 654.3200073242188 308.4269714355469 652.8400268554688 L 308.32696533203125 652.8400268554688 L 302.46697998046875 668 L 300.8669738769531 668 ZM 324.61480712890625 663.4400024414062 C 324.61480712890625 664.9466552734375 324.0681457519531 666.1233520507812 322.9748229980469 666.969970703125 C 321.8814697265625 667.8099975585938 320.3981628417969 668.22998046875 318.5248107910156 668.22998046875 C 316.4914855957031 668.22998046875 314.92816162109375 667.969970703125 313.8348083496094 667.4500122070312 L 313.8348083496094 665.530029296875 C 314.5414733886719 665.8233032226562 315.30816650390625 666.056640625 316.13482666015625 666.22998046875 C 316.96148681640625 666.4033203125 317.781494140625 666.489990234375 318.5948181152344 666.489990234375 C 319.9214782714844 666.489990234375 320.9214782714844 666.2366943359375 321.5948181152344 665.72998046875 C 322.2681579589844 665.22998046875 322.6048278808594 664.530029296875 322.6048278808594 663.6300048828125 C 322.6048278808594 663.0366821289062 322.4848327636719 662.5499877929688 322.24481201171875 662.1699829101562 C 322.00482177734375 661.7899780273438 321.608154296875 661.4400024414062 321.0548095703125 661.1199951171875 C 320.49481201171875 660.7999877929688 319.6448059082031 660.4366455078125 318.50482177734375 660.030029296875 C 316.9114990234375 659.4633178710938 315.771484375 658.7866821289062 315.0848083496094 658 C 314.3981628417969 657.219970703125 314.0548095703125 656.2033081054688 314.0548095703125 654.9500122070312 C 314.0548095703125 653.6233520507812 314.5514831542969 652.5700073242188 315.5448303222656 651.7899780273438 C 316.53814697265625 651.010009765625 317.8514709472656 650.6199951171875 319.4848327636719 650.6199951171875 C 321.1914978027344 650.6199951171875 322.7581481933594 650.933349609375 324.184814453125 651.5599975585938 L 323.5648193359375 653.2899780273438 C 322.1514892578125 652.6966552734375 320.7748107910156 652.4000244140625 319.434814453125 652.4000244140625 C 318.3814697265625 652.4000244140625 317.55816650390625 652.6266479492188 316.9648132324219 653.0800170898438 C 316.3714904785156 653.5333251953125 316.0748291015625 654.163330078125 316.0748291015625 654.969970703125 C 316.0748291015625 655.5633544921875 316.184814453125 656.0499877929688 316.4048156738281 656.4299926757812 C 316.62481689453125 656.8099975585938 316.99481201171875 657.1566772460938 317.51483154296875 657.469970703125 C 318.0348205566406 657.7899780273438 318.8281555175781 658.1400146484375 319.8948059082031 658.52001953125 C 321.69482421875 659.1599731445312 322.9314880371094 659.8466796875 323.6048278808594 660.5800170898438 C 324.27813720703125 661.3133544921875 324.61480712890625 662.2666625976562 324.61480712890625 663.4400024414062 Z" transform="matrix(11.432756423950195, 0, 0, 11.432756423950195, -2644.303466796875, -7073.4833984375)" style="fill: rgb(51, 51, 51); white-space: pre; color: rgb(51, 51, 51);"/></svg>