<?xml version="1.0" encoding="utf-8"?>
<svg id="master-artboard" viewBox="0 0 1400 980" version="1.1" xmlns="http://www.w3.org/2000/svg" x="0px" y="0px" style="enable-background:new 0 0 1400 980;" width="1400px" height="980px"><rect id="ee-background" x="0" y="0" width="1400" height="980" style="fill: white; fill-opacity: 0; pointer-events: none;"/><path d="M 697.8685913085938 157.7425537109375 L 1158.56640625 637.7366333007812 L 255.2609405517578 641.354736328125" style="fill: rgb(51, 51, 51); fill-opacity: 1; stroke: rgb(0, 0, 0); stroke-opacity: 1; stroke-width: 0; paint-order: fill;" transform="matrix(1.013351082801819, 0, 0, 1.013351082801819, -10.644109247728181, -107.02937033843227)"/><path d="M 271.9949951171875 668 L 262.4449768066406 668 L 262.4449768066406 650.8699951171875 L 271.9949951171875 650.8699951171875 L 271.9949951171875 652.6400146484375 L 264.43499755859375 652.6400146484375 L 264.43499755859375 658.1599731445312 L 271.5350036621094 658.1599731445312 L 271.5350036621094 659.9099731445312 L 264.43499755859375 659.9099731445312 L 264.43499755859375 666.219970703125 L 271.9949951171875 666.219970703125 L 271.9949951171875 668 ZM 289.4614562988281 659.27001953125 C 289.4614562988281 662.0966796875 288.6947937011719 664.260009765625 287.1614685058594 665.760009765625 C 285.62811279296875 667.2533569335938 283.4181213378906 668 280.5314636230469 668 L 275.79144287109375 668 L 275.79144287109375 650.8699951171875 L 281.04144287109375 650.8699951171875 C 283.7014465332031 650.8699951171875 285.7714538574219 651.606689453125 287.25146484375 653.0800170898438 C 288.72479248046875 654.5599975585938 289.4614562988281 656.6233520507812 289.4614562988281 659.27001953125 M 287.3514709472656 659.3400268554688 C 287.3514709472656 657.106689453125 286.79144287109375 655.42333984375 285.67144775390625 654.2899780273438 C 284.55145263671875 653.1566772460938 282.8847961425781 652.5900268554688 280.67144775390625 652.5900268554688 L 277.7814636230469 652.5900268554688 L 277.7814636230469 666.280029296875 L 280.2014465332031 666.280029296875 C 282.5814514160156 666.280029296875 284.3681335449219 665.6966552734375 285.56146240234375 664.530029296875 C 286.7547912597656 663.356689453125 287.3514709472656 661.6266479492188 287.3514709472656 659.3400268554688 ZM 300.867919921875 668 L 295.05792236328125 652.8099975585938 L 294.9579162597656 652.8099975585938 C 295.0712585449219 654.0166625976562 295.1279296875 655.4466552734375 295.1279296875 657.0999755859375 L 295.1279296875 668 L 293.28790283203125 668 L 293.28790283203125 650.8699951171875 L 296.28790283203125 650.8699951171875 L 301.7079162597656 665 L 301.80792236328125 665 L 307.2779235839844 650.8699951171875 L 310.2479248046875 650.8699951171875 L 310.2479248046875 668 L 308.2579040527344 668 L 308.2579040527344 656.9600219726562 C 308.2579040527344 655.693359375 308.3145751953125 654.3200073242188 308.42791748046875 652.8400268554688 L 308.3279113769531 652.8400268554688 L 302.4679260253906 668 L 300.867919921875 668 ZM 324.6161804199219 663.4400024414062 C 324.6161804199219 664.9466552734375 324.06951904296875 666.1233520507812 322.9761962890625 666.969970703125 C 321.88287353515625 667.8099975585938 320.3995361328125 668.22998046875 318.52618408203125 668.22998046875 C 316.49285888671875 668.22998046875 314.9295349121094 667.969970703125 313.836181640625 667.4500122070312 L 313.836181640625 665.530029296875 C 314.5428466796875 665.8233032226562 315.3095397949219 666.056640625 316.1361999511719 666.22998046875 C 316.9628601074219 666.4033203125 317.7828674316406 666.489990234375 318.59619140625 666.489990234375 C 319.9228515625 666.489990234375 320.9228515625 666.2366943359375 321.59619140625 665.72998046875 C 322.26953125 665.22998046875 322.606201171875 664.530029296875 322.606201171875 663.6300048828125 C 322.606201171875 663.0366821289062 322.4862060546875 662.5499877929688 322.2461853027344 662.1699829101562 C 322.0061950683594 661.7899780273438 321.6095275878906 661.4400024414062 321.0561828613281 661.1199951171875 C 320.4961853027344 660.7999877929688 319.64617919921875 660.4366455078125 318.5061950683594 660.030029296875 C 316.9128723144531 659.4633178710938 315.7728576660156 658.7866821289062 315.086181640625 658 C 314.3995361328125 657.219970703125 314.0561828613281 656.2033081054688 314.0561828613281 654.9500122070312 C 314.0561828613281 653.6233520507812 314.5528564453125 652.5700073242188 315.54620361328125 651.7899780273438 C 316.5395202636719 651.010009765625 317.85284423828125 650.6199951171875 319.4862060546875 650.6199951171875 C 321.19287109375 650.6199951171875 322.759521484375 650.933349609375 324.1861877441406 651.5599975585938 L 323.5661926269531 653.2899780273438 C 322.1528625488281 652.6966552734375 320.77618408203125 652.4000244140625 319.4361877441406 652.4000244140625 C 318.38287353515625 652.4000244140625 317.55950927734375 652.6266479492188 316.9661865234375 653.0800170898438 C 316.37286376953125 653.5333251953125 316.0762023925781 654.163330078125 316.0762023925781 654.969970703125 C 316.0762023925781 655.5633544921875 316.1861877441406 656.0499877929688 316.40618896484375 656.4299926757812 C 316.6261901855469 656.8099975585938 316.9961853027344 657.1566772460938 317.5162048339844 657.469970703125 C 318.03619384765625 657.7899780273438 318.82952880859375 658.1400146484375 319.89617919921875 658.52001953125 C 321.6961975097656 659.1599731445312 322.932861328125 659.8466796875 323.606201171875 660.5800170898438 C 324.2795104980469 661.3133544921875 324.6161804199219 662.2666625976562 324.6161804199219 663.4400024414062 Z" transform="matrix(13.831047058105469, 0, 0, 13.831047058105469, -3351.27783203125, -8755.1748046875)" style="fill: rgb(51, 51, 51); white-space: pre; color: rgb(51, 51, 51); stroke: rgb(0, 0, 0); stroke-width: 3;"/></svg>